<svg width="18" height="16" viewBox="0 0 18 16" fill="none" xmlns="http://www.w3.org/2000/svg">
<path d="M17.4 4.22948H12.684C13.1809 3.76889 13.4977 3.14721 13.578 2.47523C13.6324 1.91558 13.4709 1.35628 13.1264 0.9113C12.782 0.466325 12.2804 0.16916 11.724 0.0803589C11.3558 -0.0159665 10.9695 -0.0204776 10.5991 0.0672224C10.2287 0.154922 9.8856 0.332143 9.6 0.583282C9.34577 0.829038 9.14196 1.12188 9 1.44544C8.85804 1.12188 8.65424 0.829038 8.4 0.583282C8.11496 0.331109 7.77212 0.152787 7.40172 0.0640374C7.03131 -0.0247122 6.64471 -0.0211628 6.276 0.0743722C5.71958 0.163173 5.21804 0.460337 4.87356 0.905313C4.52908 1.35029 4.36759 1.90959 4.422 2.46925C4.50093 3.14335 4.81786 3.76737 5.316 4.22948H0.6C0.44087 4.22948 0.288258 4.29256 0.175736 4.40484C0.0632142 4.51712 0 4.66941 0 4.8282V9.01922C0 9.17801 0.0632142 9.3303 0.175736 9.44258C0.288258 9.55486 0.44087 9.61794 0.6 9.61794H1.8V14.2038C1.8 14.6802 1.98964 15.1371 2.32721 15.4739C2.66477 15.8108 3.12261 16 3.6 16H14.4C14.8774 16 15.3352 15.8108 15.6728 15.4739C16.0104 15.1371 16.2 14.6802 16.2 14.2038V9.61794H17.4C17.5591 9.61794 17.7117 9.55486 17.8243 9.44258C17.9368 9.3303 18 9.17801 18 9.01922V4.8282C18 4.66941 17.9368 4.51712 17.8243 4.40484C17.7117 4.29256 17.5591 4.22948 17.4 4.22948ZM10.422 1.4634C10.5158 1.3812 10.6253 1.3187 10.7438 1.27961C10.8624 1.24052 10.9876 1.22565 11.112 1.23589C11.2388 1.23762 11.3652 1.24964 11.49 1.27181C11.6235 1.28663 11.7528 1.32779 11.8702 1.39289C11.9877 1.45798 12.091 1.54572 12.1742 1.65101C12.2574 1.75629 12.3188 1.87702 12.3548 2.00618C12.3908 2.13534 12.4007 2.27036 12.384 2.40339C12.306 3.21764 11.448 4.09776 9.762 4.25343C9.738 3.37331 9.828 2.01422 10.422 1.4634ZM6.51 1.23589C6.63482 1.21371 6.76123 1.2017 6.888 1.19996C7.0141 1.19293 7.14031 1.2116 7.25893 1.25483C7.37756 1.29807 7.48613 1.36496 7.578 1.45142C8.178 2.00224 8.262 3.36134 8.238 4.2175C6.552 4.06184 5.694 3.18172 5.616 2.36746C5.59928 2.23444 5.60921 2.09942 5.64523 1.97026C5.68125 1.8411 5.74263 1.72037 5.82581 1.61508C5.90899 1.5098 6.01231 1.42206 6.12977 1.35696C6.24722 1.29186 6.37647 1.25071 6.51 1.23589ZM1.2 5.42691H0.400001V8.42051H1.2V5.42691ZM3 14.2038V9.61794H5.4V14.8026H3.6C3.44087 14.8026 3.28826 14.7395 3.17574 14.6272C3.06321 14.5149 3 14.3626 3 14.2038ZM15 14.2038C15 14.3626 14.9368 14.5149 14.8243 14.6272C14.7117 14.7395 14.5591 14.8026 14.4 14.8026H6.6V9.61794H15V14.2038ZM16.8 8.42051H0.6V5.42691H16.8V8.42051Z" fill="#28AC7C"/>
</svg>
