<svg width="56" height="56" viewBox="0 0 56 56" fill="none" xmlns="http://www.w3.org/2000/svg">
<circle cx="28" cy="28" r="28" fill="#009966"/>
<g clip-path="url(#clip0_2047_70993)">
<path fill-rule="evenodd" clip-rule="evenodd" d="M23.0385 12C22.6326 12 22.2557 12.2785 22.0922 12.5022C21.9826 12.6521 21.9153 12.7793 21.864 12.8761L21.864 12.8761C21.8387 12.9238 21.8173 12.9641 21.7967 12.9963L20.4575 15.0831C20.3688 15.2214 20.3196 15.3936 20.3082 15.5616H17.3525C16.6149 15.5616 16 16.1873 16 16.9379V19.0248C16 19.7755 16.6149 20.4018 17.3525 20.4018H17.8903C17.8924 20.5471 17.9099 20.6922 17.9291 20.8443L20.6081 42.1286C20.6687 42.6104 20.804 43.0244 21.0696 43.3502C21.3352 43.6759 21.7138 43.857 22.0613 43.9297C22.5319 44.0282 22.9849 44.0024 23.458 43.9755H23.458H23.458H23.4581C23.6837 43.9627 23.914 43.9496 24.1528 43.9496H31.7004C31.9393 43.9496 32.1695 43.9627 32.3952 43.9755H32.3952C32.8683 44.0025 33.3214 44.0283 33.7919 43.9297C34.1394 43.857 34.5186 43.6759 34.7843 43.3502C35.0499 43.0244 35.1852 42.6104 35.2458 42.1286L37.9248 20.8443C37.9372 20.7465 37.952 20.6598 37.9664 20.5761C37.9764 20.5174 37.9862 20.4603 37.9947 20.4018H38.6475C39.3851 20.4018 40 19.7755 40 19.0248V16.9379C40 16.1873 39.3851 15.5616 38.6475 15.5616H35.6914C35.68 15.3936 35.6308 15.2214 35.5421 15.0831L34.2029 12.9963C34.1823 12.9641 34.1609 12.9238 34.1357 12.8761L34.1356 12.8761C34.0844 12.7793 34.017 12.6521 33.9074 12.5022C33.7439 12.2785 33.367 12 32.9611 12H23.0385ZM19.9465 19.0119V19.0119C19.8541 19.0108 19.7654 19.0106 19.6798 19.0119H17.3659V16.9515H38.6341V19.0119H19.9465ZM36.2715 20.4086C36.433 20.4068 36.474 20.4098 36.5351 20.4142C36.5546 20.4156 36.5762 20.4172 36.6043 20.4188C36.5999 20.4501 36.5966 20.4722 36.5936 20.492C36.587 20.5363 36.5821 20.5693 36.5696 20.6679L35.9504 25.5887H19.903L19.2836 20.6679C19.2651 20.5208 19.2663 20.499 19.268 20.4697L19.268 20.4697C19.2684 20.4641 19.2687 20.4583 19.2689 20.4514C19.4343 20.4245 19.8781 20.4262 20.5988 20.4289H20.5988H20.5988H20.5988C20.8556 20.4299 21.1475 20.431 21.4744 20.431H34.3795C34.9758 20.431 35.4581 20.4224 35.8409 20.4155H35.841H35.8411C36.0017 20.4127 36.1448 20.4101 36.2715 20.4086ZM21.5128 38.3781H34.3409L33.8913 41.9514C33.851 42.2717 33.776 42.41 33.7332 42.4625C33.6904 42.5149 33.6627 42.5379 33.5171 42.5683C33.3402 42.6054 33.0212 42.5942 32.6076 42.5798C32.3404 42.5704 32.0337 42.5597 31.7004 42.5597H24.1528C23.8195 42.5597 23.5129 42.5704 23.2458 42.5798C22.8325 42.5943 22.5137 42.6054 22.3368 42.5683C22.1912 42.5378 22.1634 42.5149 22.1207 42.4625C22.0779 42.41 22.0029 42.2717 21.9626 41.9514L21.5128 38.3781ZM28 36.4224C30.2091 36.4224 32 34.6 32 32.352C32 30.104 30.2091 28.2816 28 28.2816C25.7909 28.2816 24 30.104 24 32.352C24 34.6 25.7909 36.4224 28 36.4224Z" fill="#F9F9F9"/>
</g>
<defs>
<clipPath id="clip0_2047_70993">
<rect width="32" height="32" fill="white" transform="translate(12 12)"/>
</clipPath>
</defs>
</svg>
