<svg width="20" height="20" viewBox="0 0 20 20" fill="none" xmlns="http://www.w3.org/2000/svg">
<path d="M11.0116 0.400495L13.9162 3.05589V1.99653C13.9162 1.776 14.0915 1.59722 14.3078 1.59722H15.8745C16.0908 1.59722 16.2661 1.776 16.2661 1.99653V5.19097L16.2659 5.20402L18.9583 7.66545C19.206 7.89189 19.2369 8.29239 19.0273 8.55999C18.9157 8.70252 18.7517 8.78472 18.5788 8.78472H17.8309C17.8321 8.83924 17.8327 8.89733 17.8327 8.95942V17.3948C17.8327 18.0109 17.7721 18.2343 17.6583 18.4596C17.5446 18.6848 17.3776 18.8616 17.1648 18.982C16.9521 19.1025 16.7411 19.1667 16.1591 19.1667H12.3496V14.375C12.3496 13.0518 11.2975 11.9792 9.99967 11.9792C8.70185 11.9792 7.64975 13.0518 7.64975 14.375V19.1667H3.8402C3.25826 19.1667 3.04724 19.1025 2.83449 18.982C2.62174 18.8616 2.45477 18.6848 2.34099 18.4596C2.23755 18.2548 2.17807 18.0515 2.16811 17.5533L2.16662 8.95942C2.16662 8.89733 2.16723 8.83924 2.16846 8.78472H1.42049C1.09603 8.78472 0.833008 8.50054 0.833008 8.14999C0.833008 7.96329 0.909091 7.78605 1.04101 7.66545L8.98773 0.400495C9.57183 -0.133498 10.4275 -0.133498 11.0116 0.400495Z" fill="#006241"/>
</svg>
