<svg width="20" height="20" viewBox="0 0 20 20" fill="none" xmlns="http://www.w3.org/2000/svg">
<path fill-rule="evenodd" clip-rule="evenodd" d="M18.9738 18.049L15.0688 14.1457C14.8155 13.8923 14.4021 13.8923 14.1496 14.149C13.8963 14.4057 13.898 14.819 14.153 15.074L18.058 18.9773C18.1838 19.104 18.3496 19.1673 18.5155 19.1673C18.683 19.1673 18.8505 19.1023 18.9771 18.974C19.2305 18.7173 19.2288 18.304 18.9738 18.049ZM0.833008 8.43232C0.833008 4.24315 4.24134 0.833984 8.43051 0.833984C12.6205 0.833984 16.0305 4.24315 16.0305 8.43232C16.0305 8.92815 15.9822 9.42398 15.8872 9.90565C15.818 10.2607 15.4705 10.4898 15.1238 10.4198C14.7713 10.3498 14.5422 10.0065 14.6122 9.65232C14.6905 9.25315 14.7297 8.84315 14.7297 8.43232C14.7297 4.96398 11.9038 2.14148 8.43051 2.14148C4.95801 2.14148 2.13301 4.96398 2.13301 8.43232C2.13301 11.9023 4.95801 14.7248 8.43051 14.7248C10.1872 14.7248 11.818 14.0207 13.0205 12.7423C13.2672 12.479 13.6797 12.469 13.9397 12.7173C14.2005 12.9657 14.2113 13.379 13.9647 13.6415C12.5347 15.1615 10.518 16.0323 8.43051 16.0323C4.24134 16.0323 0.833008 12.6232 0.833008 8.43232Z" fill="#28AC7C"/>
</svg>
