<svg width="20" height="20" viewBox="0 0 20 20" fill="none" xmlns="http://www.w3.org/2000/svg">
<rect x="1" y="4" width="18" height="13" rx="1" stroke="#28AC7C" stroke-width="1.2"/>
<rect x="3" y="12" width="5" height="1" fill="#28AC7C"/>
<rect x="3" y="14" width="7" height="1" fill="#28AC7C"/>
<mask id="path-4-inside-1_79_44514" fill="white">
<path fill-rule="evenodd" clip-rule="evenodd" d="M14.5 14.6181C14.2346 14.8556 13.8842 15 13.5 15C12.6716 15 12 14.3284 12 13.5C12 12.6716 12.6716 12 13.5 12C13.8842 12 14.2346 12.1444 14.5 12.3819C14.7653 12.1444 15.1158 12 15.4999 12C16.3284 12 16.9999 12.6716 16.9999 13.5C16.9999 14.3284 16.3284 15 15.4999 15C15.1158 15 14.7653 14.8556 14.5 14.6181Z"/>
</mask>
<path d="M14.5 14.6181L15.1669 13.8729L14.5 13.2761L13.8331 13.8729L14.5 14.6181ZM14.5 12.3819L13.8331 13.1271L14.5 13.7239L15.1669 13.1271L14.5 12.3819ZM13.8331 13.8729C13.744 13.9527 13.6287 14 13.5 14V16C14.1396 16 14.7252 15.7585 15.1669 15.3632L13.8331 13.8729ZM13.5 14C13.2239 14 13 13.7761 13 13.5H11C11 14.8807 12.1193 16 13.5 16V14ZM13 13.5C13 13.2239 13.2239 13 13.5 13V11C12.1193 11 11 12.1193 11 13.5H13ZM13.5 13C13.6287 13 13.744 13.0473 13.8331 13.1271L15.1669 11.6368C14.7252 11.2415 14.1396 11 13.5 11V13ZM15.1669 13.1271C15.256 13.0473 15.3713 13 15.4999 13V11C14.8603 11 14.2747 11.2415 13.8331 11.6368L15.1669 13.1271ZM15.4999 13C15.7761 13 15.9999 13.2239 15.9999 13.5H17.9999C17.9999 12.1193 16.8807 11 15.4999 11V13ZM15.9999 13.5C15.9999 13.7761 15.7761 14 15.4999 14V16C16.8807 16 17.9999 14.8807 17.9999 13.5H15.9999ZM15.4999 14C15.3713 14 15.256 13.9527 15.1669 13.8729L13.8331 15.3632C14.2747 15.7585 14.8603 16 15.4999 16V14Z" fill="#28AC7C" mask="url(#path-4-inside-1_79_44514)"/>
</svg>
