<svg width="22" height="22" viewBox="0 0 22 22" fill="none" xmlns="http://www.w3.org/2000/svg">
<path fill-rule="evenodd" clip-rule="evenodd" d="M14.5 7.5C14.5 9.433 12.933 11 11 11C9.067 11 7.5 9.433 7.5 7.5C7.5 5.567 9.067 4 11 4C12.933 4 14.5 5.567 14.5 7.5ZM9 7.5C9 8.60457 9.89543 9.5 11 9.5C12.1046 9.5 13 8.60457 13 7.5C13 6.39543 12.1046 5.5 11 5.5C9.89543 5.5 9 6.39543 9 7.5Z" fill="white"/>
<path d="M16.75 17.5C16.75 14.3244 14.1756 11.75 11 11.75C7.82436 11.75 5.25 14.3244 5.25 17.5C5.25 17.9142 5.58579 18.25 6 18.25C6.41421 18.25 6.75 17.9142 6.75 17.5C6.75 15.1528 8.65279 13.25 11 13.25C13.3472 13.25 15.25 15.1528 15.25 17.5C15.25 17.9142 15.5858 18.25 16 18.25C16.4142 18.25 16.75 17.9142 16.75 17.5Z" fill="white"/>
<path fill-rule="evenodd" clip-rule="evenodd" d="M11 22C17.0751 22 22 17.0751 22 11C22 4.92487 17.0751 0 11 0C4.92487 0 0 4.92487 0 11C0 17.0751 4.92487 22 11 22ZM11 20.5C5.75329 20.5 1.5 16.2467 1.5 11C1.5 5.75329 5.75329 1.5 11 1.5C16.2467 1.5 20.5 5.75329 20.5 11C20.5 16.2467 16.2467 20.5 11 20.5Z" fill="white"/>
</svg>
