<svg width="20" height="20" viewBox="0 0 20 20" fill="none" xmlns="http://www.w3.org/2000/svg">
<path d="M19.8521 6.83421L17.4005 0.442716C17.3506 0.312473 17.2623 0.200433 17.1474 0.121391C17.0324 0.0423489 16.8962 2.23069e-05 16.7567 0H3.24509C3.10558 2.23069e-05 2.96934 0.0423489 2.85439 0.121391C2.73944 0.200433 2.65117 0.312473 2.60123 0.442716L0.136886 6.86924C0.04498 7.1584 -0.00114015 7.46015 0.000196766 7.76356C-0.00543659 8.23527 0.109977 8.70055 0.335416 9.11497C0.560856 9.5294 0.888795 9.87912 1.28792 10.1308V19.3055C1.28792 19.4883 1.36058 19.6637 1.48992 19.793C1.61925 19.9223 1.79467 19.995 1.97758 19.995H7.65233C7.66109 19.995 7.66847 20 7.6773 20C7.68613 20 7.69358 19.9953 7.7024 19.995H12.2967C12.3055 19.995 12.3128 20 12.3217 20C12.3306 20 12.338 19.9953 12.3467 19.995H18.0215C18.2044 19.995 18.3798 19.9223 18.5092 19.793C18.6385 19.6637 18.7112 19.4883 18.7112 19.3055V10.1306C18.9958 9.96138 19.2445 9.73806 19.4432 9.47327C19.7144 9.09661 19.8927 8.66127 19.9637 8.20268C20.0348 7.7441 19.9965 7.27522 19.8521 6.83421ZM18.5486 7.28403C18.622 7.5134 18.6408 7.75677 18.6034 7.99468C18.5659 8.23259 18.4734 8.45846 18.3331 8.65423C18.2393 8.79041 18.1147 8.90251 17.9693 8.98138C17.824 9.06024 17.6621 9.10365 17.4967 9.10805C17.2172 9.08428 16.9549 8.96348 16.7551 8.76659C16.5553 8.56969 16.4308 8.30912 16.403 8.03005L16.2811 7.47157L16.2805 7.47005V7.46791L14.914 1.37896H16.2825L18.5486 7.28403ZM7.90523 1.37896L7.43013 7.70516V7.70592L7.41723 7.85802C7.42203 8.16826 7.31002 8.46896 7.10343 8.7005C6.89685 8.93205 6.61076 9.07751 6.30192 9.10805H6.19847C6.06004 9.10619 5.92349 9.07574 5.79739 9.01861C5.6713 8.96148 5.55837 8.8789 5.46571 8.77607C5.33573 8.63333 5.23521 8.46634 5.16993 8.28467C5.10465 8.10301 5.07589 7.91024 5.0853 7.71744L6.49896 1.37896H7.90523ZM9.28827 1.37896H10.7105L11.1873 7.76804C11.2123 8.09317 11.1093 8.41518 10.9002 8.66549C10.6912 8.91579 10.3926 9.07459 10.0682 9.10805H9.92744C9.60305 9.07457 9.30456 8.91579 9.09554 8.66554C8.88652 8.41528 8.78349 8.09333 8.8084 7.76825L9.28827 1.37896ZM12.0934 1.37896H13.5007L14.9183 7.69537C14.9295 7.89023 14.9019 8.08537 14.8371 8.26949C14.7723 8.45361 14.6716 8.62305 14.5409 8.768C14.4474 8.87308 14.3331 8.95757 14.2052 9.01612C14.0773 9.07466 13.9386 9.10596 13.798 9.10805H13.6997C13.3878 9.07723 13.099 8.92997 12.8909 8.69565C12.6828 8.46133 12.5707 8.15718 12.577 7.84389L12.5654 7.70599V7.7053L12.0934 1.37896ZM1.43744 7.32774L3.71923 1.37896H5.08633L3.72302 7.49094L3.72261 7.49205L3.5953 8.04956C3.56275 8.32526 3.43588 8.58124 3.23618 8.77414C3.03648 8.96704 2.77623 9.085 2.49951 9.10805C2.1739 9.07522 1.87417 8.91599 1.66474 8.66458C1.45531 8.41317 1.35289 8.08966 1.37951 7.76356C1.37751 7.61625 1.39703 7.46942 1.43744 7.32774ZM11.6321 18.616H8.36695V14.499H11.6321V18.616ZM13.0114 18.616V13.8095C13.0114 13.6266 12.9387 13.4513 12.8094 13.322C12.68 13.1926 12.5046 13.12 12.3217 13.12H7.6773C7.49439 13.12 7.31898 13.1926 7.18964 13.322C7.0603 13.4513 6.98764 13.6266 6.98764 13.8095V18.616H2.66723V10.4673C2.9917 10.4417 3.30775 10.3513 3.5967 10.2015C3.88565 10.0517 4.14165 9.84552 4.34958 9.59517C4.3864 9.6393 4.42385 9.68211 4.4633 9.72397C4.70208 9.97032 4.98932 10.1645 5.30691 10.2944C5.6245 10.4243 5.96556 10.4869 6.30858 10.4785C6.6516 10.47 6.98915 10.3906 7.29995 10.2453C7.61075 10.0999 7.88806 9.89174 8.1144 9.63392C8.33712 9.89842 8.61444 10.1116 8.92733 10.2589C9.24022 10.4061 9.58128 10.4839 9.92709 10.487C10.2961 10.4978 10.6629 10.4267 11.0011 10.2788C11.3393 10.131 11.6406 9.91013 11.8833 9.63206C11.8117 9.7148 12.662 10.2422 12.7471 10.2807C13.2406 10.4894 13.7876 10.5359 14.3093 10.4136C14.831 10.2912 15.3003 10.0064 15.6495 9.60007C16.0786 10.0939 16.6807 10.4044 17.3319 10.4678V18.616H13.0114Z" fill="white"/>
</svg>
